<svg
    width="450"
    height="450"
    viewBox="0 0 450 450"
    fill="none"
    xmlns="http://www.w3.org/2000/svg"
>
    <rect
        width="450"
        height="450"
        fill="#6366F1"
    />
    <rect
        class="stroke"
        x="10"
        y="10"
        width="430"
        height="430"
        rx="90"
        fill="#6366F1"
    />
    <path
        class="text"
        d="M124.567 199.056C121.839 199.056 119.727 198.308 118.231 196.812C116.823 195.228 116.119 193.072 116.119 190.344V113.52C116.119 110.704 116.867 108.592 118.363 107.184C119.859 105.688 121.971 104.94 124.699 104.94H156.511C166.719 104.94 174.595 107.492 180.139 112.596C185.683 117.7 188.455 124.828 188.455 133.98C188.455 143.132 185.683 150.304 180.139 155.496C174.595 160.6 166.719 163.152 156.511 163.152H133.015V190.344C133.015 193.072 132.311 195.228 130.903 196.812C129.495 198.308 127.383 199.056 124.567 199.056ZM133.015 149.82H153.871C159.855 149.82 164.387 148.5 167.467 145.86C170.547 143.132 172.087 139.172 172.087 133.98C172.087 128.788 170.547 124.872 167.467 122.232C164.387 119.592 159.855 118.272 153.871 118.272H133.015V149.82ZM226.858 199.32C220.17 199.32 214.362 197.956 209.434 195.228C204.506 192.5 200.678 188.628 197.95 183.612C195.222 178.508 193.858 172.524 193.858 165.66C193.858 160.468 194.606 155.848 196.102 151.8C197.686 147.664 199.93 144.144 202.834 141.24C205.738 138.248 209.214 136.004 213.262 134.508C217.31 132.924 221.842 132.132 226.858 132.132C233.546 132.132 239.354 133.496 244.282 136.224C249.21 138.952 253.038 142.824 255.766 147.84C258.494 152.856 259.858 158.796 259.858 165.66C259.858 170.852 259.066 175.516 257.482 179.652C255.986 183.788 253.786 187.352 250.882 190.344C247.978 193.248 244.502 195.492 240.454 197.076C236.406 198.572 231.874 199.32 226.858 199.32ZM226.858 186.78C230.114 186.78 232.974 185.988 235.438 184.404C237.902 182.82 239.794 180.488 241.114 177.408C242.522 174.24 243.226 170.324 243.226 165.66C243.226 158.62 241.73 153.384 238.738 149.952C235.746 146.432 231.786 144.672 226.858 144.672C223.602 144.672 220.742 145.464 218.278 147.048C215.814 148.544 213.878 150.876 212.47 154.044C211.15 157.124 210.49 160.996 210.49 165.66C210.49 172.612 211.986 177.892 214.978 181.5C217.97 185.02 221.93 186.78 226.858 186.78ZM281.66 222.816C279.02 222.816 276.996 222.112 275.588 220.704C274.18 219.296 273.476 217.228 273.476 214.5V140.712C273.476 137.984 274.18 135.916 275.588 134.508C276.996 133.1 278.976 132.396 281.528 132.396C284.168 132.396 286.192 133.1 287.6 134.508C289.008 135.916 289.712 137.984 289.712 140.712V151.008L288.26 147.048C289.58 142.56 292.264 138.952 296.312 136.224C300.448 133.496 305.244 132.132 310.7 132.132C316.332 132.132 321.26 133.496 325.484 136.224C329.796 138.952 333.14 142.824 335.516 147.84C337.892 152.768 339.08 158.708 339.08 165.66C339.08 172.524 337.892 178.508 335.516 183.612C333.14 188.628 329.84 192.5 325.616 195.228C321.392 197.956 316.42 199.32 310.7 199.32C305.332 199.32 300.624 198 296.576 195.36C292.528 192.632 289.8 189.112 288.392 184.8H289.976V214.5C289.976 217.228 289.228 219.296 287.732 220.704C286.324 222.112 284.3 222.816 281.66 222.816ZM306.08 186.78C309.336 186.78 312.196 185.988 314.66 184.404C317.124 182.82 319.016 180.488 320.336 177.408C321.744 174.24 322.448 170.324 322.448 165.66C322.448 158.62 320.952 153.384 317.96 149.952C314.968 146.432 311.008 144.672 306.08 144.672C302.824 144.672 299.964 145.464 297.5 147.048C295.036 148.544 293.1 150.876 291.692 154.044C290.372 157.124 289.712 160.996 289.712 165.66C289.712 172.612 291.208 177.892 294.2 181.5C297.192 185.02 301.152 186.78 306.08 186.78ZM90.5235 339.056C88.0595 339.056 86.1675 338.352 84.8475 336.944C83.5275 335.536 82.8675 333.6 82.8675 331.136V251.804C82.8675 249.252 83.5715 247.316 84.9795 245.996C86.3875 244.588 88.3235 243.884 90.7875 243.884C92.9875 243.884 94.7035 244.324 95.9355 245.204C97.2555 245.996 98.4435 247.404 99.4995 249.428L132.103 309.752H127.879L160.483 249.428C161.539 247.404 162.683 245.996 163.915 245.204C165.147 244.324 166.863 243.884 169.063 243.884C171.527 243.884 173.419 244.588 174.739 245.996C176.059 247.316 176.719 249.252 176.719 251.804V331.136C176.719 333.6 176.059 335.536 174.739 336.944C173.507 338.352 171.615 339.056 169.063 339.056C166.599 339.056 164.707 338.352 163.387 336.944C162.067 335.536 161.407 333.6 161.407 331.136V270.02H164.311L136.591 320.576C135.711 322.072 134.787 323.172 133.819 323.876C132.851 324.58 131.531 324.932 129.859 324.932C128.187 324.932 126.823 324.58 125.767 323.876C124.711 323.084 123.787 321.984 122.995 320.576L95.0115 269.888H98.1795V331.136C98.1795 333.6 97.5195 335.536 96.1995 336.944C94.9675 338.352 93.0755 339.056 90.5235 339.056ZM225.053 339.32C218.365 339.32 212.557 337.956 207.629 335.228C202.701 332.5 198.873 328.628 196.145 323.612C193.417 318.508 192.053 312.524 192.053 305.66C192.053 300.468 192.801 295.848 194.297 291.8C195.881 287.664 198.125 284.144 201.029 281.24C203.933 278.248 207.409 276.004 211.457 274.508C215.505 272.924 220.037 272.132 225.053 272.132C231.741 272.132 237.549 273.496 242.477 276.224C247.405 278.952 251.233 282.824 253.961 287.84C256.689 292.856 258.053 298.796 258.053 305.66C258.053 310.852 257.261 315.516 255.677 319.652C254.181 323.788 251.981 327.352 249.077 330.344C246.173 333.248 242.697 335.492 238.649 337.076C234.601 338.572 230.069 339.32 225.053 339.32ZM225.053 326.78C228.309 326.78 231.169 325.988 233.633 324.404C236.097 322.82 237.989 320.488 239.309 317.408C240.717 314.24 241.421 310.324 241.421 305.66C241.421 298.62 239.925 293.384 236.933 289.952C233.941 286.432 229.981 284.672 225.053 284.672C221.797 284.672 218.937 285.464 216.473 287.048C214.009 288.544 212.073 290.876 210.665 294.044C209.345 297.124 208.685 300.996 208.685 305.66C208.685 312.612 210.181 317.892 213.173 321.5C216.165 325.02 220.125 326.78 225.053 326.78ZM300.595 339.32C294.875 339.32 290.079 338.352 286.207 336.416C282.423 334.48 279.607 331.664 277.759 327.968C275.911 324.184 274.987 319.52 274.987 313.976V285.86H268.123C266.011 285.86 264.383 285.332 263.239 284.276C262.095 283.132 261.523 281.592 261.523 279.656C261.523 277.632 262.095 276.092 263.239 275.036C264.383 273.98 266.011 273.452 268.123 273.452H274.987V261.44C274.987 258.712 275.691 256.644 277.099 255.236C278.595 253.828 280.663 253.124 283.303 253.124C285.943 253.124 287.967 253.828 289.375 255.236C290.783 256.644 291.487 258.712 291.487 261.44V273.452H305.479C307.591 273.452 309.219 273.98 310.363 275.036C311.507 276.092 312.079 277.632 312.079 279.656C312.079 281.592 311.507 283.132 310.363 284.276C309.219 285.332 307.591 285.86 305.479 285.86H291.487V313.052C291.487 317.276 292.411 320.444 294.259 322.556C296.107 324.668 299.099 325.724 303.235 325.724C304.731 325.724 306.051 325.592 307.195 325.328C308.339 325.064 309.351 324.888 310.231 324.8C311.287 324.712 312.167 325.064 312.871 325.856C313.575 326.56 313.927 328.056 313.927 330.344C313.927 332.104 313.619 333.688 313.003 335.096C312.475 336.416 311.463 337.34 309.967 337.868C308.823 338.22 307.327 338.528 305.479 338.792C303.631 339.144 302.003 339.32 300.595 339.32ZM345.315 339.32C341.531 339.32 337.527 338.924 333.303 338.132C329.079 337.34 325.295 335.976 321.951 334.04C320.543 333.16 319.531 332.148 318.915 331.004C318.387 329.772 318.167 328.584 318.255 327.44C318.431 326.208 318.871 325.152 319.575 324.272C320.367 323.392 321.335 322.82 322.479 322.556C323.711 322.292 325.031 322.512 326.439 323.216C329.959 324.888 333.259 326.076 336.339 326.78C339.419 327.396 342.455 327.704 345.447 327.704C349.671 327.704 352.795 327 354.819 325.592C356.931 324.096 357.987 322.16 357.987 319.784C357.987 317.76 357.283 316.22 355.875 315.164C354.555 314.02 352.531 313.184 349.803 312.656L336.603 310.148C331.147 309.092 326.967 307.112 324.063 304.208C321.247 301.216 319.839 297.388 319.839 292.724C319.839 288.5 320.983 284.848 323.271 281.768C325.647 278.688 328.903 276.312 333.039 274.64C337.175 272.968 341.927 272.132 347.295 272.132C351.167 272.132 354.775 272.572 358.119 273.452C361.551 274.244 364.851 275.52 368.019 277.28C369.339 277.984 370.219 278.908 370.659 280.052C371.187 281.196 371.319 282.384 371.055 283.616C370.791 284.76 370.263 285.816 369.471 286.784C368.679 287.664 367.667 288.236 366.435 288.5C365.291 288.676 363.971 288.412 362.475 287.708C359.747 286.3 357.107 285.288 354.555 284.672C352.091 284.056 349.715 283.748 347.427 283.748C343.115 283.748 339.903 284.496 337.791 285.992C335.767 287.488 334.755 289.468 334.755 291.932C334.755 293.78 335.371 295.32 336.603 296.552C337.835 297.784 339.727 298.62 342.279 299.06L355.479 301.568C361.199 302.624 365.511 304.56 368.415 307.376C371.407 310.192 372.903 313.976 372.903 318.728C372.903 325.152 370.395 330.212 365.379 333.908C360.363 337.516 353.675 339.32 345.315 339.32Z"
        fill="#fff"
    />
</svg>